<svg
  xmlns="http://www.w3.org/2000/svg"
  viewBox="0 0 64 64"
  role="img"
  aria-label="Hispania Coffee"
>
  <defs>
    <linearGradient id="bg" x1="0%" y1="0%" x2="100%" y2="100%">
      <stop offset="0%" stop-color="#4a2a1f" />
      <stop offset="100%" stop-color="#8a5a3b" />
    </linearGradient>
    <linearGradient id="cup" x1="0%" y1="0%" x2="100%" y2="100%">
      <stop offset="0%" stop-color="#f6e6c8" />
      <stop offset="100%" stop-color="#ead2a2" />
    </linearGradient>
  </defs>

  <rect width="64" height="64" rx="16" fill="url(#bg)" />

  <path
    d="M24 18c-2 3 2 5 0 8c-1 2-4 3-3 6c1-2 5-2 7-5c2-3-1-6-1-9c0-1 0-1-3 0Z"
    fill="#f7d78a"
    opacity="0.9"
  />
  <path
    d="M34 16c-2 3 2 5 0 8c-1 2-4 3-3 6c1-2 5-2 7-5c2-3-1-6-1-9c0-1 0-1-3 0Z"
    fill="#f7d78a"
    opacity="0.9"
  />

  <path
    d="M18 26h24c0 9-4 15-12 15s-12-6-12-15Z"
    fill="url(#cup)"
  />
  <path
    d="M42 28h3c4 0 7 2 7 6s-3 6-7 6h-3"
    fill="none"
    stroke="#ead2a2"
    stroke-linecap="round"
    stroke-linejoin="round"
    stroke-width="4"
  />
  <path
    d="M15 45h31"
    fill="none"
    stroke="#f6e6c8"
    stroke-linecap="round"
    stroke-width="4"
  />
</svg>
